<svg width="321" height="50" viewBox="0 0 321 50" fill="none" xmlns="http://www.w3.org/2000/svg">
<path d="M97.824 11.52C100.408 11.52 102.244 12.0867 103.332 13.22C104.148 14.0813 104.556 15.1693 104.556 16.484C104.556 16.9373 104.511 17.4133 104.42 17.912L103.944 20.564C103.672 22.0373 103.196 23.2273 102.516 24.134C101.859 25.0407 101.122 25.6867 100.306 26.072L103.4 36H96.532L93.676 26.854H91.568L90.174 36H83.646L87.964 11.52H97.824ZM95.682 16.824H93.132L92.248 22.74H94.628C95.8293 22.74 96.6907 22.4567 97.212 21.89C97.7333 21.3007 97.994 20.53 97.994 19.578C97.994 17.742 97.2233 16.824 95.682 16.824ZM112.929 36.476C108.214 36.476 105.857 34.844 105.857 31.58C105.857 31.1267 105.902 30.6393 105.993 30.118L106.707 25.902C107.092 23.726 108.089 22.06 109.699 20.904C111.331 19.7253 113.484 19.136 116.159 19.136C120.715 19.136 122.993 20.8587 122.993 24.304C122.993 24.8027 122.947 25.3467 122.857 25.936L122.449 28.35H112.079L111.943 29.132C111.897 29.404 111.875 29.6533 111.875 29.88C111.875 31.1267 112.611 31.75 114.085 31.75C114.629 31.75 115.093 31.58 115.479 31.24C115.864 30.9 116.091 30.5033 116.159 30.05L121.803 30.118C121.055 34.3567 118.097 36.476 112.929 36.476ZM117.009 26.276C117.099 25.8907 117.145 25.5393 117.145 25.222C117.145 24.882 116.997 24.542 116.703 24.202C116.408 23.862 115.932 23.692 115.275 23.692C114.64 23.692 114.051 23.9073 113.507 24.338C112.985 24.7687 112.623 25.4147 112.419 26.276H117.009ZM140.766 30.764C140.766 31.3533 141.061 31.648 141.65 31.648C142.262 31.648 142.772 31.5347 143.18 31.308L143.01 35.15C141.922 36.034 140.698 36.476 139.338 36.476C136.845 36.476 135.462 35.5693 135.19 33.756C134.057 35.5693 132.391 36.476 130.192 36.476C126.475 36.476 124.616 34.878 124.616 31.682C124.616 31.138 124.673 30.5373 124.786 29.88L125.5 25.902C125.863 23.862 126.69 22.2413 127.982 21.04C129.297 19.816 131.11 19.204 133.422 19.204C134.85 19.204 135.984 19.51 136.822 20.122L138.556 10.194H144.37L140.8 30.356C140.778 30.492 140.766 30.628 140.766 30.764ZM130.702 29.132C130.657 29.336 130.634 29.6193 130.634 29.982C130.634 30.3447 130.804 30.7073 131.144 31.07C131.484 31.41 132.051 31.58 132.844 31.58C133.66 31.58 134.363 31.2627 134.952 30.628L135.972 24.916C135.723 24.3493 135.134 24.066 134.204 24.066C132.459 24.066 131.439 24.9047 131.144 26.582L130.702 29.132ZM152.163 29.03C152.163 30.594 153.285 31.376 155.529 31.376C157.796 31.376 158.929 30.6733 158.929 29.268C158.929 28.52 158.544 27.908 157.773 27.432C157.003 26.956 156.062 26.5593 154.951 26.242C153.863 25.9247 152.764 25.562 151.653 25.154C150.565 24.7233 149.636 24.066 148.865 23.182C148.095 22.2753 147.709 21.1533 147.709 19.816C147.709 14.1267 151.37 11.282 158.691 11.282C161.366 11.282 163.383 11.792 164.743 12.812C166.126 13.8093 166.817 15.2033 166.817 16.994C166.817 17.6513 166.727 18.286 166.545 18.898C166.387 19.4873 166.217 19.9067 166.035 20.156L165.763 20.564H159.745C160.244 20.0427 160.493 19.3853 160.493 18.592C160.493 17.1187 159.53 16.382 157.603 16.382C155.178 16.382 153.965 17.1527 153.965 18.694C153.965 19.4647 154.351 20.0767 155.121 20.53C155.892 20.9833 156.821 21.346 157.909 21.618C159.02 21.8673 160.131 22.1847 161.241 22.57C162.352 22.9553 163.293 23.6013 164.063 24.508C164.834 25.392 165.219 26.548 165.219 27.976C165.219 30.8547 164.358 32.9967 162.635 34.402C160.913 35.7847 158.261 36.476 154.679 36.476C151.098 36.476 148.65 35.8413 147.335 34.572C146.361 33.62 145.873 32.3053 145.873 30.628C145.873 29.9933 145.941 29.302 146.077 28.554L146.179 28.01H152.299L152.231 28.418C152.186 28.6447 152.163 28.8487 152.163 29.03ZM177.984 19.17C180.432 19.17 182.28 19.7027 183.526 20.768C184.501 21.6067 184.988 22.774 184.988 24.27C184.988 24.7687 184.932 25.3127 184.818 25.902L184.104 29.88C183.674 32.2827 182.665 33.9827 181.078 34.98C179.514 35.9773 177.418 36.476 174.788 36.476C172.159 36.476 170.232 35.9773 169.008 34.98C168.102 34.232 167.648 33.11 167.648 31.614C167.648 31.0927 167.705 30.5147 167.818 29.88L168.532 25.902C169.326 21.414 172.476 19.17 177.984 19.17ZM178.902 26.582C178.948 26.3553 178.97 26.072 178.97 25.732C178.97 25.3693 178.823 24.9727 178.528 24.542C178.234 24.1113 177.712 23.896 176.964 23.896C176.239 23.896 175.627 24.1453 175.128 24.644C174.63 25.12 174.312 25.766 174.176 26.582L173.734 29.132C173.689 29.3587 173.666 29.6533 173.666 30.016C173.666 30.356 173.814 30.73 174.108 31.138C174.403 31.546 174.913 31.75 175.638 31.75C176.386 31.75 177.01 31.5007 177.508 31.002C178.007 30.4807 178.324 29.8573 178.46 29.132L178.902 26.582ZM193.878 36.476C189.163 36.476 186.806 34.844 186.806 31.58C186.806 31.1267 186.851 30.6393 186.942 30.118L187.656 25.902C188.018 23.726 189.004 22.06 190.614 20.904C192.246 19.748 194.308 19.1587 196.802 19.136C201.63 19.136 204.044 20.8133 204.044 24.168C204.044 24.8933 203.953 25.5507 203.772 26.14C203.613 26.7067 203.443 27.092 203.262 27.296L202.99 27.636H197.21C197.776 27.1373 198.06 26.548 198.06 25.868C198.06 24.644 197.448 24.032 196.224 24.032C195.498 24.032 194.875 24.2473 194.354 24.678C193.832 25.1087 193.492 25.766 193.334 26.65L192.892 29.132C192.846 29.3587 192.824 29.574 192.824 29.778C192.824 30.9793 193.572 31.58 195.068 31.58C195.566 31.58 196.008 31.4213 196.394 31.104C196.802 30.7867 197.04 30.4353 197.108 30.05L202.752 30.118C202.004 34.3567 199.046 36.476 193.878 36.476ZM212.877 31.648C213.398 31.648 213.863 31.5347 214.271 31.308L214.101 35.15C213.036 36.034 211.823 36.476 210.463 36.476C208.4 36.476 207.063 36 206.451 35.048C206.043 34.4133 205.839 33.7447 205.839 33.042C205.839 32.3167 205.884 31.682 205.975 31.138L208.015 19.646H213.795L211.891 30.356C211.868 30.492 211.857 30.6167 211.857 30.73C211.857 31.342 212.197 31.648 212.877 31.648ZM208.695 14.104C208.695 12.6533 209.012 11.5993 209.647 10.942C210.304 10.262 211.313 9.922 212.673 9.922C214.577 9.922 215.529 10.7607 215.529 12.438C215.529 13.866 215.2 14.9087 214.543 15.566C213.908 16.2233 212.9 16.552 211.517 16.552C209.636 16.552 208.695 15.736 208.695 14.104ZM232.307 30.764C232.307 31.3533 232.602 31.648 233.191 31.648C233.803 31.648 234.313 31.5347 234.721 31.308L234.551 35.15C233.463 36.034 232.239 36.476 230.879 36.476C228.386 36.476 227.003 35.5693 226.731 33.756C225.598 35.5693 223.932 36.476 221.733 36.476C218.016 36.476 216.157 34.878 216.157 31.682C216.157 31.138 216.214 30.5373 216.327 29.88L217.041 25.902C217.404 23.862 218.231 22.2413 219.523 21.04C220.838 19.816 222.538 19.204 224.623 19.204C226.731 19.204 228.159 19.6913 228.907 20.666L229.077 19.646H234.245L232.341 30.356C232.319 30.492 232.307 30.628 232.307 30.764ZM222.243 29.132C222.198 29.336 222.175 29.6193 222.175 29.982C222.175 30.3447 222.345 30.7073 222.685 31.07C223.025 31.41 223.592 31.58 224.385 31.58C225.201 31.58 225.904 31.2627 226.493 30.628L227.513 24.916C227.264 24.3493 226.675 24.066 225.745 24.066C224 24.066 222.98 24.9047 222.685 26.582L222.243 29.132ZM243.138 30.764C243.138 31.3533 243.433 31.648 244.022 31.648C244.634 31.648 245.144 31.5347 245.552 31.308L245.382 35.15C244.294 36.034 243.07 36.476 241.71 36.476C239.648 36.476 238.31 36 237.698 35.048C237.313 34.436 237.12 33.7673 237.12 33.042C237.12 32.3167 237.166 31.682 237.256 31.138L240.962 10.194H246.742L243.172 30.356C243.15 30.492 243.138 30.628 243.138 30.764ZM270.758 11.52L266.474 36H260.32L256.036 22.604L253.724 36H247.57L251.888 11.52H258.212L262.428 24.032L264.638 11.52H270.758ZM278.247 36.476C273.532 36.476 271.175 34.844 271.175 31.58C271.175 31.1267 271.22 30.6393 271.311 30.118L272.025 25.902C272.41 23.726 273.408 22.06 275.017 20.904C276.649 19.7253 278.802 19.136 281.477 19.136C286.033 19.136 288.311 20.8587 288.311 24.304C288.311 24.8027 288.266 25.3467 288.175 25.936L287.767 28.35H277.397L277.261 29.132C277.216 29.404 277.193 29.6533 277.193 29.88C277.193 31.1267 277.93 31.75 279.403 31.75C279.947 31.75 280.412 31.58 280.797 31.24C281.182 30.9 281.409 30.5033 281.477 30.05L287.121 30.118C286.373 34.3567 283.415 36.476 278.247 36.476ZM282.327 26.276C282.418 25.8907 282.463 25.5393 282.463 25.222C282.463 24.882 282.316 24.542 282.021 24.202C281.726 23.862 281.25 23.692 280.593 23.692C279.958 23.692 279.369 23.9073 278.825 24.338C278.304 24.7687 277.941 25.4147 277.737 26.276H282.327ZM297.415 36.476C294.785 36.476 292.893 35.8867 291.737 34.708C290.875 33.8467 290.445 32.6907 290.445 31.24C290.445 30.764 290.49 30.254 290.581 29.71L292.893 16.552L299.115 13.968L298.129 19.646H307.513L306.663 24.44H297.279L296.599 28.282C296.508 28.7127 296.463 29.098 296.463 29.438C296.463 30.866 297.143 31.58 298.503 31.58C299.228 31.58 299.829 31.274 300.305 30.662C300.803 30.05 301.143 29.234 301.325 28.214H306.969C306.017 33.722 302.832 36.476 297.415 36.476Z" fill="#4F4F4F"/>
<line x1="68" x2="68" y2="50" stroke="#4F4F4F" stroke-width="4"/>
<path d="M0.615881 18.9642C1.07559 14.9373 4.48355 11.8962 8.53658 11.8962C12.5896 11.8962 15.9976 14.9373 16.4573 18.9641L17.0732 24.359H0L0.615881 18.9642Z" fill="#4F4F4F"/>
<ellipse cx="8.27769" cy="5.66488" rx="5.17369" ry="5.66488" fill="#4F4F4F"/>
<path d="M33.5426 44.6053C34.0024 40.5784 37.4103 37.5374 41.4633 37.5374C45.5164 37.5374 48.9243 40.5784 49.384 44.6053L49.9999 50.0001H32.9268L33.5426 44.6053Z" fill="#4F4F4F"/>
<ellipse cx="41.2049" cy="31.306" rx="5.17369" ry="5.66488" fill="#4F4F4F"/>
<path fill-rule="evenodd" clip-rule="evenodd" d="M17.2996 0C32.3637 0.1795 42.588 6.75141 47.9727 19.7157C45.3594 21.1997 44.5227 21.5641 41.3046 21.5641C36.5482 13.0641 28.3825 8.16829 18.0247 7.6319C16.6911 7.6319 16.9576 2.8249 17.2996 0Z" fill="#4F4F4F"/>
<path fill-rule="evenodd" clip-rule="evenodd" d="M2.82852 30.076C5.19761 27.9464 5.04265 27.7592 5.75918 28.8887C10.5473 36.4358 19.1989 42.718 29.6256 43.1943C31.591 43.1943 31.0207 43.1943 31.0207 49.7699C15.8564 49.6105 5.5641 43.7753 0.143555 32.2642C1.1406 31.5183 2.03558 30.7888 2.82852 30.076Z" fill="#4F4F4F"/>
</svg>
